<svg width="1379" height="419" viewBox="0 0 1379 419" fill="none" xmlns="http://www.w3.org/2000/svg">
<path d="M1350.44 190.112C1350.17 189.838 1323.15 162.358 1269.24 132.706C1219.49 105.339 1136 70.4762 1020.82 59.7996C894.182 48.0579 796.982 86.7431 702.983 124.152C632.163 152.337 558.933 181.481 474.972 187.479C333.207 197.6 217.482 167.959 132.982 146.313C101.815 138.33 74.8993 131.434 52.6376 128.083C-25.4688 116.329 -108.854 138.194 -109.687 138.417L-110 137.243C-109.164 137.019 -25.5417 115.088 52.8186 126.883C75.1398 130.243 102.085 137.145 133.284 145.137C217.703 166.762 333.319 196.38 474.885 186.267C558.659 180.283 631.802 151.174 702.534 123.025C796.665 85.5615 893.992 46.8288 1020.93 58.59C1136.35 69.2897 1220.02 104.237 1269.88 131.67C1323.93 161.407 1351.04 188.99 1351.31 189.266L1350.44 190.112Z" fill="url(#paint0_linear_764_6834)"/>
<path d="M1353.46 215.545C1348.72 211.168 1234.83 108.113 1021.65 89.8522C987.402 87.0443 953.323 87.8799 920.363 92.3298C848.714 102.006 782.96 125.286 719.372 147.799C642.148 175.14 562.296 203.411 474.009 205.641C445.324 206.361 415.682 205.079 383.381 201.711C298.422 192.855 222.611 173.681 161.696 158.276C120.355 147.82 84.6509 138.79 55.0865 135.024C-18.0661 125.709 -98.4461 144.583 -106.886 148.35L-107.38 147.239C-98.8966 143.455 -18.1499 124.47 55.2395 133.819C84.878 137.594 120.614 146.632 161.995 157.098C222.872 172.494 298.636 191.655 383.507 200.502C415.754 203.864 445.347 205.146 473.979 204.425C562.073 202.2 638.284 175.219 718.966 146.653C782.613 124.119 848.427 100.819 920.199 91.1262C953.245 86.6618 987.413 85.8262 1021.75 88.6414C1235.35 106.936 1349.53 210.263 1354.29 214.652L1353.46 215.545Z" fill="url(#paint1_linear_764_6834)"/>
<path d="M1356.47 240.955C1355.33 239.91 1233.72 135.673 1022.48 119.905C988.265 117.351 954.206 118.696 921.246 123.9C858.997 133.731 798.841 152.709 740.665 171.064C658.281 197.057 573.182 223.904 482.907 223.907C479.623 223.907 476.343 223.871 473.046 223.799C445.41 223.193 416.191 220.188 383.715 214.615C317.135 203.187 255.616 187.223 201.339 173.14C145.611 158.679 97.482 146.19 57.5361 141.964C-17.222 134.061 -93.474 153.537 -104.174 158.312L-104.668 157.202C-93.9173 152.406 -17.3398 132.818 57.6648 140.756C97.7006 144.991 145.87 157.491 201.645 171.964C255.899 186.042 317.393 201.998 383.921 213.417C416.336 218.981 445.499 221.979 473.074 222.584C566.833 224.656 655.016 196.814 740.302 169.907C798.52 151.539 858.719 132.544 921.058 122.701C954.114 117.481 988.273 116.135 1022.58 118.693C1234.21 134.491 1356.16 239.014 1357.29 240.063L1356.47 240.955Z" fill="url(#paint2_linear_764_6834)"/>
<path d="M1359.47 266.363C1355.2 262.416 1321.01 236.71 1261.76 209.834C1209.68 186.214 1126.05 156.651 1023.32 149.956C988.713 147.7 954.669 149.555 922.128 155.469C870.77 164.802 818.8 179.533 768.542 193.78C672.651 220.962 573.497 249.067 472.081 241.954C444.383 240.01 416.41 235.421 384.047 227.513C340.075 216.768 298.293 205.032 257.886 193.683C181.336 172.183 115.226 153.614 59.984 148.902C-9.62715 142.964 -83.7149 160.356 -101.465 168.274L-101.959 167.164C-83.5218 158.94 -10.7105 141.653 60.0872 147.692C115.444 152.414 181.606 170.997 258.215 192.515C298.612 203.862 340.385 215.594 384.336 226.334C416.631 234.225 444.54 238.804 472.167 240.742C573.365 247.842 672.421 219.765 768.213 192.61C818.498 178.357 870.498 163.617 921.912 154.274C954.551 148.343 988.698 146.484 1023.4 148.744C1126.31 155.449 1210.1 185.065 1262.26 208.728C1321.66 235.672 1356 261.501 1360.3 265.472L1359.47 266.363Z" fill="url(#paint3_linear_764_6834)"/>
<path d="M1362.48 291.773C1356.1 285.889 1318.31 260.638 1259.24 235.608C1206.49 213.261 1122.89 185.473 1024.15 180.009C989.029 178.067 955 180.432 923.013 187.038C884.683 194.958 846.296 204.928 805.655 215.486C695.99 243.974 582.591 273.43 471.117 260.11C443.585 256.821 415.212 250.377 384.378 240.412C369.892 235.731 355.512 231.029 341.266 226.371C238.454 192.759 141.345 161.012 62.4306 155.842C-5.95992 151.359 -76.2973 168.217 -98.7557 178.239L-99.25 177.129C-72.1328 165.031 -0.832336 150.485 62.5096 154.631C141.577 159.812 238.757 191.582 341.644 225.218C355.889 229.875 370.267 234.576 384.751 239.258C415.509 249.199 443.807 255.626 471.261 258.906C582.514 272.195 695.795 242.77 805.349 214.311C846.005 203.751 884.406 193.775 922.765 185.851C954.856 179.221 988.989 176.843 1024.22 178.797C1123.13 184.271 1206.88 212.104 1259.71 234.49C1318.93 259.583 1356.89 284.959 1363.3 290.881L1362.48 291.773Z" fill="url(#paint4_linear_764_6834)"/>
<path d="M1365.48 317.182C1357.28 309.617 1315.7 284.709 1256.71 261.419C1203.35 240.35 1119.84 214.338 1024.98 210.061C989.216 208.454 955.207 211.325 923.896 218.608C902.178 223.659 880.168 229.123 856.865 234.908C734.605 265.259 596.031 299.661 470.152 278.265C442.024 273.484 414.074 265.32 384.706 253.305C276.28 208.948 162.49 167.281 64.8761 162.78C3.68626 159.967 -63.706 173.772 -96.0467 188.202L-96.541 187.092C-64.0728 172.607 3.55267 158.728 64.9319 161.568C162.73 166.076 276.639 207.783 385.166 252.18C414.45 264.161 442.316 272.301 470.355 277.066C595.984 298.417 734.427 264.049 856.571 233.728C879.879 227.941 901.893 222.476 923.62 217.423C955.04 210.114 989.165 207.226 1025.04 208.848C1120.06 213.131 1203.71 239.185 1257.16 260.288C1316.29 283.637 1358.05 308.671 1366.3 316.288L1365.48 317.182Z" fill="url(#paint5_linear_764_6834)"/>
<path d="M1368.49 342.592C1360.09 334.846 1317.95 310.664 1254.19 287.266C1200.28 267.482 1116.89 243.242 1025.82 240.114C989.299 238.861 955.301 242.246 924.782 250.176C832.17 274.243 703.534 307.67 581.313 307.673C542.861 307.674 505.052 304.366 469.19 296.417C440.62 290.085 412.306 279.917 385.037 266.194C262.52 204.54 155.626 172.082 67.3235 169.72C4.1613 168.029 -58.8721 182.788 -93.3358 198.166L-93.8301 197.056C-59.2413 181.624 4.02287 166.818 67.3562 168.505C155.838 170.872 262.905 203.376 385.583 265.111C412.762 278.787 440.979 288.921 469.452 295.232C619.022 328.379 802.841 280.61 924.476 249.001C955.109 241.04 989.214 237.648 1025.86 238.901C1117.1 242.034 1200.61 266.312 1254.61 286.126C1318.53 309.584 1360.86 333.897 1369.31 341.702L1368.49 342.592Z" fill="url(#paint6_linear_764_6834)"/>
<path d="M1371.49 368.002C1361.73 358.991 1316.9 335.327 1251.66 313.149C1197.26 294.651 1114.06 272.181 1026.65 270.166C989.249 269.303 955.277 273.2 925.667 281.745C848.832 303.915 771.84 319.497 703.014 326.807C612.005 336.472 533.009 332.355 468.224 314.569C438.67 306.454 410.792 294.514 385.368 279.081C309.193 232.842 192.606 177.539 69.7711 176.658C15.2027 176.267 -46.2397 188.326 -90.6258 208.129L-91.1201 207.019C-46.5859 187.15 15.0727 175.026 69.7796 175.444C192.892 176.327 309.693 231.725 385.998 278.043C411.328 293.418 439.101 305.313 468.546 313.397C533.184 331.144 612.026 335.248 702.886 325.6C771.642 318.297 848.562 302.73 925.33 280.579C955.06 272 989.163 268.091 1026.68 268.952C1114.24 270.97 1197.57 293.474 1252.06 311.999C1318.18 334.48 1362.18 357.76 1372.31 367.11L1371.49 368.002Z" fill="url(#paint7_linear_764_6834)"/>
<path d="M1374.5 393.411C1349.31 370.16 1178.69 301.889 1027.49 300.219C989.113 299.8 955.138 304.201 926.552 313.313C858.801 334.91 779.74 349.751 703.931 355.101C613.12 361.51 531.282 353.769 467.26 332.717C436.647 322.652 409.206 308.941 385.7 291.962C288.752 221.944 179.503 183.561 77.4639 183.561C75.7089 183.561 73.9686 183.574 72.2185 183.595C17.2165 184.308 -39.6534 196.559 -87.9149 218.091L-88.4092 216.981C-39.9995 195.383 17.0404 183.095 72.2039 182.381C175.998 181.055 287.587 219.603 386.413 290.977C409.817 307.882 437.146 321.536 467.64 331.563C602.857 376.025 795.374 353.852 926.183 312.153C954.895 303.002 988.976 298.564 1027.5 299.003C1178.98 300.676 1350.04 369.184 1375.32 392.517L1374.5 393.411Z" fill="url(#paint8_linear_764_6834)"/>
<path d="M1377.5 418.821C1359.91 402.586 1281.66 371.528 1193.2 351.175C1129.21 336.451 1009.61 316.059 927.439 344.879C851.428 371.538 745.072 386.349 649.855 383.545C595.74 381.948 546.399 375.035 503.201 363C455.03 349.58 415.61 330.015 386.035 304.843C321.499 249.918 246.196 212.952 168.266 197.942C126.851 189.965 84.8793 188.224 43.5185 192.772C-0.188705 197.577 -43.4975 209.447 -85.2069 228.057L-85.7012 226.947C-43.8777 208.287 -0.446182 196.383 43.3861 191.565C84.8671 187.006 126.963 188.751 168.497 196.748C246.632 211.8 322.128 248.857 386.823 303.918C416.263 328.974 455.528 348.458 503.527 361.831C546.631 373.84 595.875 380.736 649.893 382.33C744.95 385.142 851.156 370.347 927.037 343.734C1009.5 314.812 1129.36 335.239 1193.47 349.991C1282.12 370.388 1360.62 401.587 1378.32 417.928L1377.5 418.821Z" fill="url(#paint9_linear_764_6834)"/>
<path d="M-105.203 4.12014C66.4813 -16.1012 239.607 39.7715 380.656 135.268C538.634 242.228 717.247 250.059 868.526 124.305C793.221 252.854 553.232 282.852 431.77 214.938C367.931 179.243 317.738 123.034 254.684 85.6879C145.867 21.2384 19.0723 8.01861 -105.203 16.0586V4.12014Z" fill="url(#paint10_linear_764_6834)"/>
<defs>
<linearGradient id="paint0_linear_764_6834" x1="-110.002" y1="123.279" x2="1351.3" y2="123.279" gradientUnits="userSpaceOnUse">
<stop offset="0.0614" stop-color="#BFCBE0"/>
<stop offset="1" stop-color="#D7EDFD" stop-opacity="0"/>
</linearGradient>
<linearGradient id="paint1_linear_764_6834" x1="-107.382" y1="151.279" x2="1354.28" y2="151.279" gradientUnits="userSpaceOnUse">
<stop offset="0.0614" stop-color="#BFCBE0"/>
<stop offset="1" stop-color="#D7EDFD" stop-opacity="0"/>
</linearGradient>
<linearGradient id="paint2_linear_764_6834" x1="-104.67" y1="179.195" x2="1357.29" y2="179.195" gradientUnits="userSpaceOnUse">
<stop offset="0.0614" stop-color="#BFCBE0"/>
<stop offset="1" stop-color="#D7EDFD" stop-opacity="0"/>
</linearGradient>
<linearGradient id="paint3_linear_764_6834" x1="-101.961" y1="206.401" x2="1360.3" y2="206.401" gradientUnits="userSpaceOnUse">
<stop offset="0.0614" stop-color="#BFCBE0"/>
<stop offset="1" stop-color="#D7EDFD" stop-opacity="0"/>
</linearGradient>
<linearGradient id="paint4_linear_764_6834" x1="-99.2524" y1="222.841" x2="1363.3" y2="222.841" gradientUnits="userSpaceOnUse">
<stop offset="0.0614" stop-color="#BFCBE0"/>
<stop offset="1" stop-color="#D7EDFD" stop-opacity="0"/>
</linearGradient>
<linearGradient id="paint5_linear_764_6834" x1="-96.5434" y1="239.189" x2="1366.3" y2="239.189" gradientUnits="userSpaceOnUse">
<stop offset="0.0614" stop-color="#BFCBE0"/>
<stop offset="1" stop-color="#D7EDFD" stop-opacity="0"/>
</linearGradient>
<linearGradient id="paint6_linear_764_6834" x1="-93.8325" y1="255.483" x2="1369.31" y2="255.483" gradientUnits="userSpaceOnUse">
<stop offset="0.0614" stop-color="#BFCBE0"/>
<stop offset="1" stop-color="#D7EDFD" stop-opacity="0"/>
</linearGradient>
<linearGradient id="paint7_linear_764_6834" x1="-91.1225" y1="271.718" x2="1372.31" y2="271.718" gradientUnits="userSpaceOnUse">
<stop offset="0.0614" stop-color="#BFCBE0"/>
<stop offset="1" stop-color="#D7EDFD" stop-opacity="0"/>
</linearGradient>
<linearGradient id="paint8_linear_764_6834" x1="-88.4116" y1="287.88" x2="1375.32" y2="287.88" gradientUnits="userSpaceOnUse">
<stop offset="0.0614" stop-color="#BFCBE0"/>
<stop offset="1" stop-color="#D7EDFD" stop-opacity="0"/>
</linearGradient>
<linearGradient id="paint9_linear_764_6834" x1="-85.7036" y1="303.956" x2="1378.32" y2="303.956" gradientUnits="userSpaceOnUse">
<stop offset="0.0614" stop-color="#BFCBE0"/>
<stop offset="1" stop-color="#D7EDFD" stop-opacity="0"/>
</linearGradient>
<linearGradient id="paint10_linear_764_6834" x1="-105.204" y1="125.121" x2="868.527" y2="125.121" gradientUnits="userSpaceOnUse">
<stop offset="0.0614" stop-color="#B9E3F2"/>
<stop offset="1" stop-color="#E8F6FB"/>
</linearGradient>
</defs>
</svg>
