<svg width="408" height="309" viewBox="0 0 408 309" fill="none" xmlns="http://www.w3.org/2000/svg">
<path d="M390.374 188.135C390.374 233.951 373.986 275.96 346.745 308.591H57.732C30.491 275.96 14.103 233.951 14.103 188.135C14.103 84.236 98.339 0 202.238 0C306.137 0 390.374 84.236 390.374 188.135Z" fill="#CEEDED"/>
<path d="M112.348 158.526H51.502C47.122 158.526 43.572 154.976 43.572 150.596V147.288C43.572 142.908 47.122 139.358 51.502 139.358H112.349C116.729 139.358 120.279 142.909 120.279 147.288V150.596C120.279 154.975 116.728 158.526 112.348 158.526Z" fill="#D3EDE8"/>
<path d="M93.6681 145.062H80.3071C75.9271 145.062 72.3771 141.512 72.3771 137.132V133.824C72.3771 129.444 75.9271 125.894 80.3071 125.894H93.6681C98.0481 125.894 101.598 129.445 101.598 133.824V137.132C101.598 141.512 98.0481 145.062 93.6681 145.062Z" fill="#D3EDE8"/>
<path d="M296.332 208.447H357.179C361.559 208.447 365.109 204.897 365.109 200.517V197.209C365.109 192.829 361.559 189.279 357.179 189.279H296.332C291.952 189.279 288.402 192.829 288.402 197.209V200.517C288.402 204.896 291.952 208.447 296.332 208.447Z" fill="#D3EDE8"/>
<path d="M315.012 194.984H328.373C332.753 194.984 336.303 191.434 336.303 187.054V183.746C336.303 179.366 332.753 175.816 328.373 175.816H315.012C310.632 175.816 307.082 179.366 307.082 183.746V187.054C307.082 191.433 310.633 194.984 315.012 194.984Z" fill="#D3EDE8"/>
<path d="M333.34 308.414H71.138C67.496 308.414 64.543 305.461 64.543 301.819V299.068C64.543 295.426 67.496 292.473 71.138 292.473H333.34C336.982 292.473 339.935 295.426 339.935 299.068V301.819C339.935 305.462 336.982 308.414 333.34 308.414Z" fill="#A4D8D6"/>
<path d="M289.295 296.502H115.183C106.083 296.502 98.7061 289.125 98.7061 280.025V162.985H305.771V280.025C305.772 289.125 298.395 296.502 289.295 296.502Z" fill="#F49600"/>
<path d="M305.772 162.983H202.239H98.7061L191.53 64.9439C197.347 58.7999 207.13 58.7999 212.947 64.9439L305.772 162.983Z" fill="#F49600"/>
<path d="M274.769 213.313H111.983C108.21 213.313 105.152 210.255 105.152 206.482V90.8291C105.152 87.0561 108.21 83.998 111.983 83.998H274.769C278.542 83.998 281.6 87.0561 281.6 90.8291V206.482C281.601 210.255 278.542 213.313 274.769 213.313Z" fill="#EDEDED"/>
<path d="M85.754 98.0691H144.862C150.964 98.0691 155.911 93.1221 155.911 87.0201V82.4111C155.911 76.3091 150.964 71.3621 144.862 71.3621H85.754C79.652 71.3621 74.705 76.3091 74.705 82.4111V87.0201C74.705 93.1221 79.652 98.0691 85.754 98.0691Z" fill="#13D2C2"/>
<path d="M111.781 79.311H130.397C136.499 79.311 141.446 74.364 141.446 68.262V63.654C141.446 57.552 136.499 52.605 130.397 52.605H111.781C105.679 52.605 100.732 57.552 100.732 63.654V68.262C100.732 74.364 105.679 79.311 111.781 79.311Z" fill="#13D2C2"/>
<path opacity="0.0951" d="M295.818 216.788H133.032C129.259 216.788 126.201 213.73 126.201 209.957V94.3039C126.201 90.5309 129.259 87.4729 133.032 87.4729H295.818C299.591 87.4729 302.649 90.5309 302.649 94.3039V209.957C302.649 213.73 299.591 216.788 295.818 216.788Z" fill="#020202"/>
<path d="M291.286 221.773H128.5C124.727 221.773 121.669 218.715 121.669 214.942V99.289C121.669 95.516 124.727 92.458 128.5 92.458H291.286C295.059 92.458 298.117 95.516 298.117 99.289V214.942C298.117 218.715 295.059 221.773 291.286 221.773Z" fill="#F7F7F7"/>
<path opacity="0.0951" d="M283.632 239.499H120.846C117.073 239.499 114.015 236.441 114.015 232.668V117.015C114.015 113.242 117.073 110.184 120.846 110.184H283.632C287.405 110.184 290.463 113.242 290.463 117.015V232.668C290.463 236.44 287.405 239.499 283.632 239.499Z" fill="#020202"/>
<path d="M279.402 244.937H116.616C112.843 244.937 109.785 241.879 109.785 238.106V122.453C109.785 118.68 112.843 115.622 116.616 115.622H279.402C283.175 115.622 286.233 118.68 286.233 122.453V238.106C286.233 241.879 283.175 244.937 279.402 244.937Z" fill="white"/>
<path d="M261.267 174.438H134.751C133.923 174.438 133.251 173.767 133.251 172.938V172.312C133.251 171.484 133.923 170.812 134.751 170.812H261.267C262.095 170.812 262.767 171.484 262.767 172.312V172.938C262.767 173.767 262.096 174.438 261.267 174.438Z" fill="#B5BBC1"/>
<path d="M261.267 186.524H134.751C133.923 186.524 133.251 185.852 133.251 185.024V184.398C133.251 183.57 133.923 182.898 134.751 182.898H261.267C262.095 182.898 262.767 183.57 262.767 184.398V185.024C262.767 185.852 262.096 186.524 261.267 186.524Z" fill="#B5BBC1"/>
<path d="M261.267 198.609H134.751C133.923 198.609 133.251 197.937 133.251 197.109V196.483C133.251 195.655 133.923 194.983 134.751 194.983H261.267C262.095 194.983 262.767 195.655 262.767 196.483V197.109C262.767 197.938 262.096 198.609 261.267 198.609Z" fill="#B5BBC1"/>
<path d="M261.267 210.695H134.751C133.923 210.695 133.251 210.023 133.251 209.195V208.569C133.251 207.741 133.923 207.069 134.751 207.069H261.267C262.095 207.069 262.767 207.741 262.767 208.569V209.195C262.767 210.023 262.096 210.695 261.267 210.695Z" fill="#B5BBC1"/>
<path d="M261.267 222.78H134.751C133.923 222.78 133.251 222.108 133.251 221.28V220.654C133.251 219.826 133.923 219.154 134.751 219.154H261.267C262.095 219.154 262.767 219.826 262.767 220.654V221.28C262.767 222.109 262.096 222.78 261.267 222.78Z" fill="#B5BBC1"/>
<path d="M305.776 162.985V276.589C305.776 287.587 296.857 296.506 285.859 296.506H118.619C107.621 296.506 98.702 287.587 98.702 276.589V162.985L202.239 229.975L305.776 162.985Z" fill="#FDAD13"/>
<path opacity="0.3323" d="M277.568 181.234V248.393C277.568 259.391 268.661 268.298 257.663 268.298H98.702V276.589C98.702 287.587 107.621 296.506 118.619 296.506H285.858C296.856 296.506 305.775 287.587 305.775 276.589V162.985L277.568 181.234Z" fill="#FDAD13"/>
<path d="M118.433 256.387H116.243C113.343 256.387 110.993 254.037 110.993 251.137V236.649C110.993 233.749 113.343 231.399 116.243 231.399H118.433C121.333 231.399 123.683 233.749 123.683 236.649V251.137C123.683 254.037 121.333 256.387 118.433 256.387Z" fill="#FDAD13"/>
<path d="M118.433 226.846H116.243C113.343 226.846 110.993 224.496 110.993 221.596V217.743C110.993 214.843 113.343 212.493 116.243 212.493H118.433C121.333 212.493 123.683 214.843 123.683 217.743V221.596C123.683 224.495 121.333 226.846 118.433 226.846Z" fill="#FDAD13"/>
<path d="M145.244 158.091C142.684 158.091 140.543 157.672 138.822 156.832C137.123 155.993 135.821 154.818 134.919 153.307C134.038 151.796 133.503 150.075 133.314 148.144C133.293 147.851 133.272 147.462 133.251 146.98C133.23 146.497 133.219 145.983 133.219 145.437C133.219 144.892 133.23 144.377 133.251 143.895C133.272 143.412 133.293 143.034 133.314 142.762C133.44 141.439 133.765 140.18 134.289 138.984C134.835 137.767 135.58 136.697 136.524 135.773C137.49 134.829 138.654 134.094 140.019 133.57C141.404 133.024 143.009 132.751 144.835 132.751C147.017 132.751 148.853 133.003 150.343 133.507C151.833 133.99 153.04 134.682 153.963 135.584C154.908 136.487 155.611 137.557 156.072 138.795C156.534 140.012 156.807 141.334 156.891 142.762C156.933 143.202 156.954 143.674 156.954 144.178C156.954 144.682 156.943 145.164 156.922 145.626C156.922 146.067 156.912 146.434 156.891 146.728C156.828 147.777 156.566 148.658 156.104 149.372C155.663 150.085 155.086 150.621 154.373 150.977C153.68 151.334 152.925 151.512 152.106 151.512C151.414 151.512 150.805 151.418 150.28 151.229C149.756 151.04 149.326 150.83 148.99 150.6C148.675 150.348 148.423 150.117 148.234 149.907C148.087 150.159 147.867 150.442 147.573 150.757C147.301 151.051 146.891 151.303 146.346 151.512C145.821 151.722 145.097 151.827 144.174 151.827C142.621 151.827 141.393 151.25 140.491 150.096C139.588 148.942 139.137 147.378 139.137 145.406C139.137 143.412 139.567 141.838 140.428 140.684C141.309 139.53 142.526 138.953 144.079 138.953C144.919 138.953 145.58 139.089 146.062 139.362C146.545 139.635 146.944 139.981 147.259 140.401V139.991C147.259 139.761 147.332 139.572 147.479 139.425C147.626 139.278 147.815 139.204 148.046 139.204H149.651C149.882 139.204 150.071 139.278 150.218 139.425C150.364 139.572 150.438 139.761 150.438 139.991V146.382C150.438 147.053 150.585 147.567 150.879 147.924C151.172 148.281 151.582 148.459 152.106 148.459C152.526 148.459 152.851 148.354 153.082 148.144C153.334 147.913 153.502 147.641 153.586 147.326C153.691 146.99 153.743 146.675 153.743 146.382C153.743 145.92 153.754 145.395 153.775 144.808C153.796 144.199 153.775 143.569 153.712 142.919C153.628 141.324 153.292 140.002 152.704 138.953C152.117 137.882 151.193 137.095 149.934 136.592C148.675 136.067 146.975 135.805 144.835 135.805C143.051 135.805 141.571 136.109 140.396 136.718C139.242 137.305 138.34 138.134 137.689 139.204C137.06 140.275 136.661 141.513 136.493 142.919C136.451 143.276 136.42 143.779 136.399 144.43C136.399 145.08 136.399 145.741 136.399 146.413C136.42 147.064 136.451 147.588 136.493 147.987C136.745 150.211 137.574 151.943 138.98 153.181C140.386 154.419 142.474 155.038 145.244 155.038C146.545 155.038 147.584 154.954 148.36 154.786C149.158 154.639 149.787 154.429 150.249 154.157C150.732 153.905 151.162 153.643 151.54 153.37C151.707 153.244 151.854 153.139 151.98 153.055C152.127 152.971 152.306 152.929 152.515 152.929H154.75C154.96 152.929 155.139 153.002 155.286 153.149C155.453 153.296 155.527 153.496 155.506 153.747C155.506 153.831 155.485 153.915 155.443 153.999C155.422 154.062 155.38 154.125 155.317 154.188C154.729 154.86 153.984 155.489 153.082 156.077C152.201 156.685 151.109 157.168 149.808 157.525C148.528 157.903 147.007 158.091 145.244 158.091ZM144.772 148.774C145.611 148.774 146.23 148.501 146.629 147.955C147.049 147.41 147.259 146.56 147.259 145.406C147.259 144.251 147.049 143.402 146.629 142.856C146.23 142.289 145.611 142.006 144.772 142.006C143.974 142.006 143.366 142.289 142.946 142.856C142.526 143.402 142.316 144.251 142.316 145.406C142.316 146.119 142.4 146.728 142.568 147.231C142.757 147.735 143.03 148.123 143.387 148.396C143.764 148.648 144.226 148.774 144.772 148.774Z" fill="#B5BBC1"/>
<path d="M228.435 148.605H168.187C167.359 148.605 166.687 147.933 166.687 147.105V146.479C166.687 145.651 167.359 144.979 168.187 144.979H228.435C229.263 144.979 229.935 145.651 229.935 146.479V147.105C229.935 147.934 229.263 148.605 228.435 148.605Z" fill="#B5BBC1"/>
<path d="M260.17 160.691H168.187C167.359 160.691 166.687 160.019 166.687 159.191V158.565C166.687 157.737 167.359 157.065 168.187 157.065H260.17C260.998 157.065 261.67 157.737 261.67 158.565V159.191C261.67 160.019 260.998 160.691 260.17 160.691Z" fill="#B5BBC1"/>
<path opacity="0.1487" d="M331.174 262.489C343.76 249.903 343.76 229.498 331.174 216.912C318.588 204.326 298.183 204.326 285.597 216.912C273.011 229.498 273.011 249.903 285.597 262.489C298.183 275.075 318.588 275.075 331.174 262.489Z" fill="#020202"/>
<path d="M326.944 257.252C339.53 244.666 339.53 224.261 326.944 211.675C314.358 199.089 293.953 199.089 281.367 211.675C268.782 224.261 268.782 244.666 281.367 257.252C293.953 269.837 314.358 269.837 326.944 257.252Z" fill="#FE693C"/>
<path opacity="0.3136" d="M336.388 234.459C336.388 252.261 321.958 266.691 304.156 266.691C293.134 266.691 283.405 261.156 277.604 252.696C282.789 256.249 289.049 258.328 295.805 258.328C313.595 258.328 328.025 243.898 328.025 226.108C328.025 219.352 325.946 213.092 322.393 207.907C330.853 213.708 336.388 223.437 336.388 234.459Z" fill="#FE693C"/>
<path d="M316.442 223.679C314.915 222.152 312.805 221.209 310.481 221.209C308.653 221.209 306.961 221.792 305.58 222.775C305.201 223.047 304.851 223.349 304.52 223.679C304.394 223.805 304.277 223.932 304.16 224.058C304.043 223.932 303.927 223.805 303.8 223.679C303.469 223.348 303.119 223.047 302.74 222.775C301.359 221.793 299.667 221.209 297.839 221.209C295.515 221.209 293.405 222.152 291.878 223.679C290.351 225.206 289.408 227.306 289.408 229.63C289.408 231.458 289.991 233.15 290.983 234.541L292.928 236.486L304.159 247.717L315.39 236.486L317.335 234.541C318.327 233.15 318.91 231.458 318.91 229.63C318.911 227.306 317.968 225.206 316.442 223.679Z" fill="white"/>
<path d="M279.159 236.322C279.141 236.322 279.125 236.322 279.108 236.322C277.443 236.294 276.114 234.929 276.136 233.264C276.254 224.549 281.766 207.994 301.776 207.724C301.79 207.724 301.804 207.724 301.818 207.724C303.467 207.724 304.816 209.049 304.838 210.704C304.861 212.373 303.526 213.744 301.858 213.767C282.775 214.024 282.193 232.567 282.178 233.355C282.146 235.002 280.801 236.322 279.159 236.322Z" fill="#FE693C"/>
<path d="M13.794 249.368H66.947C72.434 249.368 76.883 244.92 76.883 239.433V235.289C76.883 229.802 72.435 225.354 66.947 225.354H13.794C8.30701 225.354 3.85901 229.802 3.85901 235.289V239.433C3.85901 244.92 8.30701 249.368 13.794 249.368Z" fill="#CEEDED"/>
<path d="M27.979 232.501H44.719C50.206 232.501 54.655 228.053 54.655 222.565V218.421C54.655 212.934 50.207 208.486 44.719 208.486H27.979C22.492 208.486 18.043 212.934 18.043 218.421V222.565C18.043 228.052 22.491 232.501 27.979 232.501Z" fill="#CEEDED"/>
<path d="M9.935 245.938H63.088C68.575 245.938 73.023 241.49 73.023 236.003V231.859C73.023 226.372 68.575 221.923 63.088 221.923H9.935C4.448 221.923 1.68544e-07 226.371 1.68544e-07 231.859V236.003C-0.000999831 241.49 4.448 245.938 9.935 245.938Z" fill="#13D2C2"/>
<path d="M24.119 229.07H40.859C46.346 229.07 50.795 224.622 50.795 219.135V214.991C50.795 209.504 46.347 205.056 40.859 205.056H24.119C18.632 205.056 14.184 209.504 14.184 214.991V219.135C14.184 224.622 18.632 229.07 24.119 229.07Z" fill="#13D2C2"/>
<path d="M103.156 123.566C102.055 124.311 100.95 125.059 99.847 125.813" stroke="#0284C4" stroke-miterlimit="10"/>
<path d="M93.361 130.377C85.746 135.947 78.629 142.126 73.547 149.999C66.319 161.195 64.219 176.821 72.129 187.546C78.89 196.714 90.971 200.114 102.288 201.413C128.547 204.425 155.296 199.265 179.905 189.619C204.514 179.973 227.177 165.96 248.859 150.844C258.84 143.886 268.765 136.614 277.136 127.724C286.515 117.763 290.772 105.027 296.352 92.6461C298.226 88.4881 299.9 83.0501 296.656 79.8441C294.889 78.0971 292.149 77.7081 289.69 78.0671C284.807 78.7821 280.42 82.2421 278.587 86.8241C276.754 91.4061 277.545 96.9371 280.588 100.822C284.781 106.175 292.459 107.83 299.114 106.433C305.769 105.036 311.592 101.097 316.934 96.8901C328.241 87.9851 338.275 77.4701 346.652 65.7681" stroke="#0284C4" stroke-miterlimit="10" stroke-dasharray="7.93 7.93"/>
<path d="M348.919 62.509C349.667 61.405 350.4 60.291 351.118 59.168" stroke="#0284C4" stroke-miterlimit="10"/>
<path d="M316.471 100.766L339.197 79.5051L326.401 75.9531L316.471 100.766Z" fill="#06637F"/>
<path d="M316.619 69.574L316.471 100.766L327.081 76.502L390.23 26.748L316.077 67.736L316.619 69.574Z" fill="#0775A0"/>
<path d="M298.143 60.799L316.856 69.382L390.23 26.749L298.251 58.57C297.227 58.924 297.158 60.347 298.143 60.799Z" fill="#0284C4"/>
<path d="M390.23 26.748L327.08 76.502L351.316 88.23C352.109 88.614 353.064 88.33 353.519 87.576L390.23 26.748Z" fill="#0284C4"/>
<path d="M311.512 59.1221L354.919 42.5051" stroke="#0284C4" stroke-width="3" stroke-miterlimit="10" stroke-linecap="round"/>
<path opacity="0.4972" d="M63.1159 137.074C63.1159 140.167 60.6089 142.674 57.5149 142.674C54.4209 142.674 51.9139 140.167 51.9139 137.074C51.9139 133.981 54.4209 131.473 57.5149 131.473C60.6089 131.473 63.1159 133.981 63.1159 137.074Z" fill="white"/>
<path opacity="0.4972" d="M174.403 61.237C174.403 64.33 171.895 66.838 168.802 66.838C165.709 66.838 163.201 64.331 163.201 61.237C163.201 58.143 165.708 55.636 168.802 55.636C171.895 55.637 174.403 58.144 174.403 61.237Z" fill="white"/>
<path opacity="0.4972" d="M85.776 263.468C85.776 266.561 83.269 269.069 80.175 269.069C77.081 269.069 74.574 266.561 74.574 263.468C74.574 260.375 77.081 257.867 80.175 257.867C83.269 257.867 85.776 260.375 85.776 263.468Z" fill="white"/>
<path opacity="0.4972" d="M37.97 166.932C43.9932 166.932 48.876 162.049 48.876 156.026C48.876 150.003 43.9932 145.12 37.97 145.12C31.9467 145.12 27.064 150.003 27.064 156.026C27.064 162.049 31.9467 166.932 37.97 166.932Z" fill="white"/>
<path opacity="0.4972" d="M360.824 218.644C364.258 215.21 364.258 209.642 360.824 206.208C357.389 202.774 351.821 202.774 348.387 206.208C344.953 209.642 344.953 215.21 348.387 218.644C351.821 222.079 357.389 222.079 360.824 218.644Z" fill="white"/>
<path opacity="0.4972" d="M360.92 234.582C360.92 237.956 358.185 240.691 354.811 240.691C351.437 240.691 348.702 237.956 348.702 234.582C348.702 231.208 351.437 228.473 354.811 228.473C358.185 228.473 360.92 231.208 360.92 234.582Z" fill="white"/>
<path opacity="0.3323" d="M102.735 175.647L202.038 241.916L296.909 182.092" stroke="#FDAD13" stroke-width="2" stroke-miterlimit="10" stroke-linecap="round" stroke-linejoin="round"/>
<path d="M395.415 187.934H331.658C325.076 187.934 319.74 182.598 319.74 176.016V171.045C319.74 164.463 325.076 159.127 331.658 159.127H395.415C401.997 159.127 407.333 164.463 407.333 171.045V176.016C407.333 182.598 401.997 187.934 395.415 187.934Z" fill="#CEEDED"/>
<path d="M367.341 167.701H347.261C340.679 167.701 335.343 162.365 335.343 155.783V150.812C335.343 144.23 340.679 138.894 347.261 138.894H367.341C373.923 138.894 379.259 144.23 379.259 150.812V155.783C379.259 162.365 373.923 167.701 367.341 167.701Z" fill="#CEEDED"/>
<path d="M388.899 182.79H325.142C318.56 182.79 313.224 177.454 313.224 170.872V165.901C313.224 159.319 318.56 153.983 325.142 153.983H388.899C395.481 153.983 400.817 159.319 400.817 165.901V170.872C400.817 177.454 395.481 182.79 388.899 182.79Z" fill="#13D2C2"/>
<path d="M360.826 162.557H340.746C334.164 162.557 328.828 157.221 328.828 150.639V145.668C328.828 139.086 334.164 133.75 340.746 133.75H360.826C367.408 133.75 372.744 139.086 372.744 145.668V150.639C372.743 157.221 367.408 162.557 360.826 162.557Z" fill="#13D2C2"/>
<path d="M335.343 153.297C335.343 153.297 330.647 140.397 344.546 138.282" stroke="#13D2C2" stroke-width="4" stroke-miterlimit="10" stroke-linecap="round"/>
<path d="M107.531 72.9291C107.531 72.9291 102.835 60.0291 116.733 57.9141" stroke="#13D2C2" stroke-width="4" stroke-miterlimit="10" stroke-linecap="round"/>
<path d="M22.1269 223.998C22.1269 223.998 17.431 211.098 31.329 208.983" stroke="#13D2C2" stroke-width="4" stroke-miterlimit="10" stroke-linecap="round"/>
</svg>
