<?xml version="1.0" encoding="UTF-8" standalone="no"?>
<svg
   enable-background="new 0 0 24 24"
   height="24px"
   id="Layer_1"
   version="1.1"
   viewBox="0 0 24 24"
   width="24px"
   xml:space="preserve"
   sodipodi:docname="youtube.svg"
   inkscape:version="1.3 (0e150ed6c4, 2023-07-21)"
   xmlns:inkscape="http://www.inkscape.org/namespaces/inkscape"
   xmlns:sodipodi="http://sodipodi.sourceforge.net/DTD/sodipodi-0.dtd"
   xmlns="http://www.w3.org/2000/svg"
   xmlns:svg="http://www.w3.org/2000/svg"><defs
     id="defs1" /><sodipodi:namedview
     id="namedview1"
     pagecolor="#ffffff"
     bordercolor="#000000"
     borderopacity="0.25"
     inkscape:showpageshadow="2"
     inkscape:pageopacity="0.0"
     inkscape:pagecheckerboard="0"
     inkscape:deskcolor="#d1d1d1"
     inkscape:zoom="34.208333"
     inkscape:cx="12"
     inkscape:cy="12"
     inkscape:window-width="1920"
     inkscape:window-height="1017"
     inkscape:window-x="-8"
     inkscape:window-y="-8"
     inkscape:window-maximized="1"
     inkscape:current-layer="g1" /><g
     id="g1"><path
       d="M23.3,7.3c0-0.2-0.3-1.8-1-2.5c-0.9-1-1.9-1.1-2.4-1.1l-0.1,0c-3.1-0.2-7.7-0.2-7.8-0.2c0,0-4.7,0-7.8,0.2l-0.1,0   c-0.5,0-1.5,0.1-2.4,1.1c-0.7,0.8-1,2.4-1,2.6c0,0.1-0.2,1.9-0.2,3.8v1.7c0,1.9,0.2,3.7,0.2,3.8c0,0.2,0.3,1.8,1,2.5   c0.8,0.9,1.8,1,2.4,1.1c0.1,0,0.2,0,0.3,0c1.8,0.2,7.3,0.2,7.5,0.2c0,0,0,0,0,0c0,0,4.7,0,7.8-0.2l0.1,0c0.5-0.1,1.5-0.2,2.4-1.1   c0.7-0.8,1-2.4,1-2.6c0-0.1,0.2-1.9,0.2-3.8v-1.7C23.5,9.3,23.3,7.4,23.3,7.3z M15.9,12.2l-6,3.2c-0.1,0-0.1,0.1-0.2,0.1   c-0.1,0-0.2,0-0.2-0.1c-0.1-0.1-0.2-0.2-0.2-0.4l0-6.5c0-0.2,0.1-0.3,0.2-0.4S9.8,8,10,8.1l6,3.2c0.2,0.1,0.3,0.2,0.3,0.4   S16.1,12.1,15.9,12.2z"
       id="path1"
       style="fill:#1ec0ec;fill-opacity:1" /></g></svg>
